<svg xmlns="http://www.w3.org/2000/svg" xmlns:xlink="http://www.w3.org/1999/xlink" width="180" zoomAndPan="magnify" viewBox="0 0 135 135.000003" height="180" preserveAspectRatio="xMidYMid meet" version="1.0"><defs><g/><clipPath id="9c2e1ef7ea"><path d="M 0.496094 0 L 134.503906 0 L 134.503906 134.007812 L 0.496094 134.007812 Z M 0.496094 0 " clip-rule="nonzero"/></clipPath><clipPath id="d95499be0c"><path d="M 0.496094 0 L 134.503906 0 L 134.503906 134.007812 L 0.496094 134.007812 Z M 0.496094 0 " clip-rule="nonzero"/></clipPath><clipPath id="02c3e0abfe"><path d="M 6.453125 0 L 128.546875 0 C 130.128906 0 131.640625 0.628906 132.757812 1.746094 C 133.875 2.863281 134.503906 4.375 134.503906 5.957031 L 134.503906 128.050781 C 134.503906 129.632812 133.875 131.144531 132.757812 132.261719 C 131.640625 133.378906 130.128906 134.007812 128.546875 134.007812 L 6.453125 134.007812 C 4.871094 134.007812 3.359375 133.378906 2.242188 132.261719 C 1.125 131.144531 0.496094 129.632812 0.496094 128.050781 L 0.496094 5.957031 C 0.496094 4.375 1.125 2.863281 2.242188 1.746094 C 3.359375 0.628906 4.871094 0 6.453125 0 Z M 6.453125 0 " clip-rule="nonzero"/></clipPath></defs><g clip-path="url(#9c2e1ef7ea)"><path fill="#ffffff" d="M 0.496094 0 L 134.503906 0 L 134.503906 134.007812 L 0.496094 134.007812 Z M 0.496094 0 " fill-opacity="1" fill-rule="nonzero"/><path fill="#ffffff" d="M 0.496094 0 L 134.503906 0 L 134.503906 134.007812 L 0.496094 134.007812 Z M 0.496094 0 " fill-opacity="1" fill-rule="nonzero"/></g><g clip-path="url(#d95499be0c)"><g clip-path="url(#02c3e0abfe)"><path fill="#2b60f9" d="M 0.496094 0 L 134.503906 0 L 134.503906 134.007812 L 0.496094 134.007812 Z M 0.496094 0 " fill-opacity="1" fill-rule="nonzero"/></g></g><g fill="#ffffff" fill-opacity="1"><g transform="translate(10.471406, 90.301596)"><g><path d="M 40.515625 -55.109375 L 40.515625 -33.140625 L 21.234375 -33.140625 L 21.234375 -55.59375 L 6.484375 -55.109375 L 6.484375 0 L 21.234375 0 L 21.234375 -21.5625 L 40.515625 -21.5625 L 40.515625 0 L 55.28125 0 L 55.28125 -55.109375 Z M 40.515625 -55.109375 "/></g></g></g><g fill="#ffffff" fill-opacity="1"><g transform="translate(72.233449, 90.301596)"><g><path d="M 27.3125 0 C 34.0625 0 39.640625 -1.28125 44.046875 -3.84375 C 48.453125 -6.414062 50.65625 -10.617188 50.65625 -16.453125 C 50.65625 -18.992188 49.992188 -21.367188 48.671875 -23.578125 C 47.347656 -25.796875 45.550781 -27.691406 43.28125 -29.265625 C 44.84375 -30.828125 46.082031 -32.390625 47 -33.953125 C 47.925781 -35.523438 48.390625 -37.285156 48.390625 -39.234375 C 48.390625 -44.523438 46.238281 -48.492188 41.9375 -51.140625 C 37.644531 -53.785156 32.226562 -55.109375 25.6875 -55.109375 L 6.484375 -55.109375 L 6.484375 0 Z M 25.203125 -43.515625 C 27.691406 -43.515625 29.632812 -43.082031 31.03125 -42.21875 C 32.4375 -41.351562 33.140625 -40.113281 33.140625 -38.5 C 33.140625 -37.09375 32.316406 -36.023438 30.671875 -35.296875 C 29.023438 -34.566406 26.988281 -34.203125 24.5625 -34.203125 L 21.234375 -34.203125 L 21.234375 -43.515625 Z M 27.46875 -22.609375 C 29.957031 -22.609375 31.90625 -22.09375 33.3125 -21.0625 C 34.71875 -20.039062 35.421875 -18.613281 35.421875 -16.78125 C 35.421875 -15.101562 34.71875 -13.816406 33.3125 -12.921875 C 31.90625 -12.035156 30.015625 -11.59375 27.640625 -11.59375 L 21.234375 -11.59375 L 21.234375 -22.609375 Z M 27.46875 -22.609375 "/></g></g></g></svg>